<?xml version="1.0" encoding="UTF-8"?> <svg xmlns="http://www.w3.org/2000/svg" xmlns:xlink="http://www.w3.org/1999/xlink" width="360" zoomAndPan="magnify" viewBox="0 0 270 44.999999" height="60" preserveAspectRatio="xMidYMid meet" version="1.0"><defs><g></g><clipPath id="7e53c78913"><path d="M 0.0117188 0 L 269.988281 0 L 269.988281 44.25 L 0.0117188 44.25 Z M 0.0117188 0 " clip-rule="nonzero"></path></clipPath><clipPath id="f8c9feda6a"><path d="M 5.007812 6.894531 L 153.753906 6.894531 L 153.753906 38.609375 L 5.007812 38.609375 Z M 5.007812 6.894531 " clip-rule="nonzero"></path></clipPath></defs><g clip-path="url(#7e53c78913)"><path stroke-linecap="butt" transform="matrix(0.75, 0, 0, 0.750994, 0.0108343, -0.000000000000005329)" fill="none" stroke-linejoin="miter" d="M 0.00117927 0.000000000000007096 L 359.969975 0.000000000000007096 L 359.969975 58.921878 L 0.00117927 58.921878 Z M 0.00117927 0.000000000000007096 " stroke="#000000" stroke-width="4" stroke-opacity="1" stroke-miterlimit="4"></path></g><g clip-path="url(#f8c9feda6a)"><path fill="#004aad" d="M 5.007812 6.894531 L 153.753906 6.894531 L 153.753906 38.609375 L 5.007812 38.609375 Z M 5.007812 6.894531 " fill-opacity="1" fill-rule="nonzero"></path></g><g fill="#ffffff" fill-opacity="1"><g transform="translate(12.052, 29.971376)"><g><path d="M 5.886719 0 L 7.519531 0 L 13.046875 -13.921875 L 11.199219 -13.921875 L 8.871094 -8.054688 L 6.703125 -2.527344 L 4.515625 -8.054688 L 2.207031 -13.921875 L 0.339844 -13.921875 Z M 5.886719 0 "></path></g></g></g><g fill="#ffffff" fill-opacity="1"><g transform="translate(26.944606, 29.971376)"><g><path d="M 2.027344 0 L 3.777344 0 L 3.777344 -13.921875 L 2.027344 -13.921875 Z M 2.027344 0 "></path></g></g></g><g fill="#ffffff" fill-opacity="1"><g transform="translate(34.261976, 29.971376)"><g><path d="M 2.027344 0 L 10.699219 0 L 10.699219 -1.632812 L 3.777344 -1.632812 L 3.777344 -6.285156 L 9.984375 -6.285156 L 9.984375 -7.894531 L 3.777344 -7.894531 L 3.777344 -12.292969 L 10.480469 -12.292969 L 10.480469 -13.921875 L 2.027344 -13.921875 Z M 2.027344 0 "></path></g></g></g><g fill="#ffffff" fill-opacity="1"><g transform="translate(47.762808, 29.971376)"><g><path d="M 4.894531 0 L 6.523438 0 L 10.699219 -11.277344 L 13.007812 -5.070312 L 14.898438 0 L 16.527344 0 L 21.0625 -13.921875 L 19.234375 -13.921875 L 15.652344 -2.785156 L 11.535156 -13.921875 L 9.886719 -13.921875 L 5.769531 -2.804688 L 4.136719 -7.914062 L 2.207031 -13.921875 L 0.378906 -13.921875 Z M 4.894531 0 "></path></g></g></g><g fill="#ffffff" fill-opacity="1"><g transform="translate(70.707822, 29.971376)"><g><path d="M 5.390625 0 L 7.140625 0 L 7.140625 -12.25 L 11.835938 -12.25 L 11.835938 -13.921875 L 0.675781 -13.921875 L 0.675781 -12.25 L 5.390625 -12.25 Z M 5.390625 0 "></path></g></g></g><g fill="#ffffff" fill-opacity="1"><g transform="translate(84.745473, 29.971376)"><g><path d="M 8.351562 0.257812 C 12.589844 0.257812 15.574219 -2.726562 15.574219 -6.960938 C 15.574219 -11.199219 12.589844 -14.179688 8.351562 -14.179688 C 4.117188 -14.179688 1.152344 -11.199219 1.152344 -6.960938 C 1.152344 -2.726562 4.117188 0.257812 8.351562 0.257812 Z M 2.945312 -6.960938 C 2.945312 -10.203125 5.152344 -12.429688 8.351562 -12.429688 C 11.554688 -12.429688 13.761719 -10.203125 13.761719 -6.960938 C 13.761719 -3.71875 11.554688 -1.492188 8.351562 -1.492188 C 5.152344 -1.492188 2.945312 -3.71875 2.945312 -6.960938 Z M 2.945312 -6.960938 "></path></g></g></g><g fill="#ffffff" fill-opacity="1"><g transform="translate(102.958456, 29.971376)"><g><path d="M 8.351562 0.257812 C 12.589844 0.257812 15.574219 -2.726562 15.574219 -6.960938 C 15.574219 -11.199219 12.589844 -14.179688 8.351562 -14.179688 C 4.117188 -14.179688 1.152344 -11.199219 1.152344 -6.960938 C 1.152344 -2.726562 4.117188 0.257812 8.351562 0.257812 Z M 2.945312 -6.960938 C 2.945312 -10.203125 5.152344 -12.429688 8.351562 -12.429688 C 11.554688 -12.429688 13.761719 -10.203125 13.761719 -6.960938 C 13.761719 -3.71875 11.554688 -1.492188 8.351562 -1.492188 C 5.152344 -1.492188 2.945312 -3.71875 2.945312 -6.960938 Z M 2.945312 -6.960938 "></path></g></g></g><g fill="#ffffff" fill-opacity="1"><g transform="translate(121.17144, 29.971376)"><g><path d="M 2.027344 0 L 10.542969 0 L 10.542969 -1.671875 L 3.777344 -1.671875 L 3.777344 -13.921875 L 2.027344 -13.921875 Z M 2.027344 0 "></path></g></g></g><g fill="#ffffff" fill-opacity="1"><g transform="translate(133.83721, 29.971376)"><g><path d="M 6.664062 0.257812 C 9.707031 0.257812 11.675781 -1.234375 11.675781 -3.660156 C 11.675781 -5.707031 10.300781 -6.941406 6.742188 -7.816406 C 4.039062 -8.472656 3.140625 -9.1875 3.140625 -10.34375 C 3.140625 -11.675781 4.335938 -12.511719 6.324219 -12.511719 C 8.375 -12.511719 9.644531 -11.476562 9.6875 -9.804688 L 11.417969 -9.804688 C 11.398438 -12.511719 9.449219 -14.179688 6.324219 -14.179688 C 3.28125 -14.179688 1.351562 -12.6875 1.351562 -10.34375 C 1.351562 -8.195312 2.882812 -7 6.304688 -6.183594 C 8.8125 -5.589844 9.863281 -4.894531 9.863281 -3.601562 C 9.863281 -2.226562 8.632812 -1.414062 6.664062 -1.414062 C 4.496094 -1.414062 2.984375 -2.484375 2.945312 -4.277344 L 1.191406 -4.277344 C 1.214844 -1.550781 3.339844 0.257812 6.664062 0.257812 Z M 6.664062 0.257812 "></path></g></g></g><g fill="#ff0404" fill-opacity="1"><g transform="translate(161.476777, 30.187093)"><g><path d="M 4.984375 0 L 9.339844 0 L 12.09375 -8.429688 L 14.84375 0 L 19.199219 0 L 24.074219 -15.167969 L 19.480469 -15.167969 L 18.417969 -11.789062 L 16.859375 -6.933594 L 14.171875 -15.167969 L 10.011719 -15.167969 L 8.882812 -11.789062 L 7.347656 -7.0625 L 5.808594 -11.789062 L 4.746094 -15.167969 L 0.109375 -15.167969 Z M 4.984375 0 "></path></g></g></g><g fill="#ff0404" fill-opacity="1"><g transform="translate(185.654942, 30.187093)"><g><path d="M 1.605469 0 L 12.242188 0 L 12.242188 -3.574219 L 5.9375 -3.574219 L 5.9375 -5.914062 L 11.421875 -5.914062 L 11.421875 -9.425781 L 5.9375 -9.425781 L 5.9375 -11.636719 L 12.003906 -11.636719 L 12.003906 -15.167969 L 1.605469 -15.167969 Z M 1.605469 0 "></path></g></g></g><g fill="#ff0404" fill-opacity="1"><g transform="translate(198.870608, 30.187093)"><g><path d="M 1.605469 0 L 9.382812 0 C 12.460938 0 14.605469 -1.734375 14.605469 -4.226562 C 14.605469 -5.828125 13.738281 -7.128906 12.308594 -7.757812 C 13.480469 -8.429688 14.152344 -9.644531 14.152344 -11.09375 C 14.152344 -13.585938 12.15625 -15.167969 8.992188 -15.167969 L 1.605469 -15.167969 Z M 5.894531 -3.25 L 5.894531 -6.089844 L 8.539062 -6.089844 C 9.578125 -6.089844 10.164062 -5.570312 10.164062 -4.679688 C 10.164062 -3.769531 9.578125 -3.25 8.539062 -3.25 Z M 5.894531 -9.210938 L 5.894531 -11.941406 L 8.167969 -11.941406 C 9.1875 -11.941406 9.75 -11.441406 9.75 -10.574219 C 9.75 -9.6875 9.1875 -9.210938 8.167969 -9.210938 Z M 5.894531 -9.210938 "></path></g></g></g><g fill="#ff0404" fill-opacity="1"><g transform="translate(214.101119, 30.187093)"><g><path d="M 7.042969 0.324219 C 10.8125 0.324219 13.046875 -1.453125 13.046875 -4.441406 C 13.046875 -6.957031 11.421875 -8.429688 7.734375 -9.253906 C 5.785156 -9.6875 5.070312 -10.164062 5.070312 -10.941406 C 5.070312 -11.679688 5.722656 -12.136719 6.738281 -12.136719 C 7.953125 -12.136719 8.644531 -11.507812 8.644531 -10.359375 L 12.761719 -10.359375 C 12.761719 -13.480469 10.378906 -15.492188 6.652344 -15.492188 C 3.078125 -15.492188 0.867188 -13.71875 0.867188 -10.855469 C 0.867188 -8.300781 2.535156 -6.71875 5.960938 -6.066406 C 7.800781 -5.699219 8.691406 -5.136719 8.691406 -4.269531 C 8.691406 -3.511719 8.039062 -3.078125 6.976562 -3.078125 C 5.722656 -3.078125 4.984375 -3.75 4.984375 -4.917969 L 0.757812 -4.917969 C 0.757812 -1.648438 3.097656 0.324219 7.042969 0.324219 Z M 7.042969 0.324219 "></path></g></g></g><g fill="#ff0404" fill-opacity="1"><g transform="translate(227.94507, 30.187093)"><g><path d="M 1.605469 0 L 5.980469 0 L 5.980469 -15.167969 L 1.605469 -15.167969 Z M 1.605469 0 "></path></g></g></g><g fill="#ff0404" fill-opacity="1"><g transform="translate(235.527827, 30.187093)"><g><path d="M 5.222656 0 L 9.578125 0 L 9.578125 -11.117188 L 14.195312 -11.117188 L 14.195312 -15.167969 L 0.605469 -15.167969 L 0.605469 -11.117188 L 5.222656 -11.117188 Z M 5.222656 0 "></path></g></g></g><g fill="#ff0404" fill-opacity="1"><g transform="translate(250.325036, 30.187093)"><g><path d="M 1.605469 0 L 12.242188 0 L 12.242188 -3.574219 L 5.9375 -3.574219 L 5.9375 -5.914062 L 11.421875 -5.914062 L 11.421875 -9.425781 L 5.9375 -9.425781 L 5.9375 -11.636719 L 12.003906 -11.636719 L 12.003906 -15.167969 L 1.605469 -15.167969 Z M 1.605469 0 "></path></g></g></g></svg> 